# xmcd
# Track frame offsets:
# 150
# 14777
# 26000
# 38874
# 52022
# 65737
# 81272
# 94476
# 111145
# 126917
# 145643
# 162226
# 173586
# 190401
# 206052
#
# Disc length: 2920 seconds
# Revision: 0
# Processed by: cddbd v1.5.1PL0 Copyright (c) Steve Scherf et al.
# Submitted via: VisiTrax 2.9.10.228 - For more info visit www.synapsa.com
#
DISCID=dd0b660f
DTITLE=Parton, Dolly - CB90005
DYEAR=1900
DGENRE=karaoke
TTITLE0=Coat Of Many Colors
TTITLE1=Just Someone I Used To Know
TTITLE2=Jolene
TTITLE3=Me And Little Andy
TTITLE4=Here You Come Again
TTITLE5=It's All Wrong, But It's All Right
TTITLE6=Two Doors Down
TTITLE7=Heartbreaker
TTITLE8=You're The Only One
TTITLE9=Starting Over Again
TTITLE10=Old Flames Can't Hold A Candle To You
TTITLE11=9 To 5
TTITLE12=Romeo
TTITLE13=Straight Talk
TTITLE14=To Daddy
EXTD=
EXTT0=
EXTT1=
EXTT2=
EXTT3=
EXTT4=
EXTT5=
EXTT6=
EXTT7=
EXTT8=
EXTT9=
EXTT10=
EXTT11=
EXTT12=
EXTT13=
EXTT14=
PLAYORDER=
